<?xml version="1.0" encoding="UTF-8" standalone="no"?>
<!-- Creator: CorelDRAW X5 -->

<svg
   xmlns:dc="http://purl.org/dc/elements/1.1/"
   xmlns:cc="http://creativecommons.org/ns#"
   xmlns:rdf="http://www.w3.org/1999/02/22-rdf-syntax-ns#"
   xmlns:svg="http://www.w3.org/2000/svg"
   xmlns="http://www.w3.org/2000/svg"
   xmlns:sodipodi="http://sodipodi.sourceforge.net/DTD/sodipodi-0.dtd"
   xmlns:inkscape="http://www.inkscape.org/namespaces/inkscape"
   xml:space="preserve"
   width="744.09448"
   height="674.09448"
   style="clip-rule:evenodd;fill-rule:evenodd;image-rendering:optimizeQuality;shape-rendering:geometricPrecision;text-rendering:geometricPrecision"
   viewBox="0 0 210000 190244.45"
   sodipodi:version="0.32"
   inkscape:version="0.91 r13725"
   sodipodi:docname="logo.svg"
   inkscape:export-filename="/home/terminus/Documents/grafika/logo_moje/LogoMojeMono.png"
   inkscape:export-xdpi="111.9"
   inkscape:export-ydpi="111.9"
   version="1.1"
   id="svg2985"><metadata
     id="metadata3095"><rdf:RDF><cc:Work
         rdf:about=""><dc:format>image/svg+xml</dc:format><dc:type
           rdf:resource="http://purl.org/dc/dcmitype/StillImage" /><dc:title></dc:title></cc:Work></rdf:RDF></metadata><sodipodi:namedview
     pagecolor="#ffffff"
     bordercolor="#666666"
     borderopacity="1"
     objecttolerance="10"
     gridtolerance="10"
     guidetolerance="10"
     inkscape:pageopacity="0"
     inkscape:pageshadow="2"
     inkscape:window-width="1482"
     inkscape:window-height="970"
     id="namedview3093"
     showgrid="false"
     inkscape:zoom="1.0603492"
     inkscape:cx="372.04724"
     inkscape:cy="372.04724"
     inkscape:window-x="0"
     inkscape:window-y="0"
     inkscape:window-maximized="0"
     inkscape:current-layer="g3087"
     units="px" /><defs
     id="defs2987"><style
       type="text/css"
       id="style2989">
    .fil0 {fill:black;fill-rule:nonzero}
   </style></defs><g
     id="Warstwa_x0020_1"
     transform="translate(9324.9608,-122607.99)"><metadata
       id="CorelCorpID_0Corel-Layer" /><sodipodi:namedview
       inkscape:window-height="729"
       inkscape:window-width="1218"
       inkscape:pageshadow="2"
       inkscape:pageopacity="0.0"
       borderopacity="1.0"
       bordercolor="#666666"
       pagecolor="#ffffff"
       id="base"
       inkscape:zoom="1.3603414"
       inkscape:cx="372.04656"
       inkscape:cy="526.23658"
       inkscape:window-x="0"
       inkscape:window-y="0"
       inkscape:current-layer="svg2"
       showguides="true"
       inkscape:guide-bbox="true"
       showgrid="false"
       inkscape:window-maximized="1" /><g
       id="Domyślnie" /><g
       id="g10"><g
         id="g14"><g
           id="g16" /></g></g><g
       id="g112" /><g
       id="g114"><g
         id="g118"><g
           id="g120" /></g></g><g
       id="g122"><g
         id="g126"><g
           id="g128" /></g></g><g
       id="g158"><g
         id="g162"><g
           id="g164" /></g></g><g
       id="g178"><g
         id="g182"><g
           id="g184" /></g></g><g
       id="g198"><g
         id="g202"><g
           id="g204" /></g></g><g
       id="g218"><g
         id="g222"><g
           id="g224" /></g></g><g
       id="g238"><g
         id="g242"><g
           id="g244" /></g></g><g
       id="g258"><g
         id="g262"><g
           id="g264" /></g></g><g
       id="g278"><g
         id="g282"><g
           id="g284" /></g></g><g
       id="g298"><g
         id="g302"><g
           id="g304" /></g></g><g
       id="g318"><g
         id="g322"><g
           id="g324" /></g></g><g
       id="g366"><g
         id="g370"><g
           id="g372" /></g></g><g
       id="g506"><g
         id="g510"><g
           id="g512" /></g></g><g
       id="g6883" /><g
       id="g6428"><g
         id="g6432"><g
           id="g6434" /></g></g><g
       id="g6452"><g
         id="g6456"><g
           id="g6458" /></g></g><g
       id="g6460"><g
         id="g6464"><g
           id="g6466" /></g></g><g
       id="g6468"><g
         id="g6472"><g
           id="g6474" /></g></g><g
       id="g6476"><g
         id="g6480"><g
           id="g6482" /></g></g><g
       id="g6484"><g
         id="g6488"><g
           id="g6490" /></g></g><g
       id="g6520"><g
         id="g6524"><g
           id="g6526" /></g></g><g
       id="g6540"><g
         id="g6544"><g
           id="g6546" /></g></g><g
       id="g6560"><g
         id="g6564"><g
           id="g6566" /></g></g><g
       id="g6580"><g
         id="g6584"><g
           id="g6586" /></g></g><g
       id="g6600"><g
         id="g6604"><g
           id="g6606" /></g></g><g
       id="g6620"><g
         id="g6624"><g
           id="g6626" /></g></g><g
       id="g6640"><g
         id="g6644"><g
           id="g6646" /></g></g><g
       id="g6660"><g
         id="g6664"><g
           id="g6666" /></g></g><g
       id="g6680"><g
         id="g6684"><g
           id="g6686" /></g></g><g
       id="g6728"><g
         id="g6732"><g
           id="g6734" /></g></g><g
       id="g3087"><path
         id="path2854"
         d="m 98296.367,127743.99 -4846.684,47.52 -4846.685,285.1 -4830.844,522.67 -4799.165,744.42 -4767.485,966.18 -4735.823,1219.58 -4672.447,1425.49 -4624.944,1678.93 -4545.746,1900.66 -4482.386,2122.39 -4387.365,2375.84 -4308.165,2597.57 -4213.127,2835.15 -4118.106,3088.59 -3991.387,3326.15 -3912.188,3595.4 -3785.487,3848.85 -79.181,79.2 -79.2,79.18 -63.359,79.2 0,15.84 -79.199,95.04 -79.181,95.02 -3246.969,3658.77 -3452.869,4308.17 -3246.968,4498.24 -3009.3714,4672.45 -2771.7916,4799.16 -2486.7104,4862.52 -2201.5935,4862.53 -1916.49432,4878.36 -1647.23508,4862.53 -1393.8158,4878.36 -1140.3963,4878.36 -886.9769,4878.37 -649.3973,4878.36 -411.8177,4894.21 -174.2203,4894.18 47.5195,4878.37 285.0991,4862.52 522.6787,4830.84 744.4183,4815.01 982.0159,4767.5 1203.7557,4719.97 1441.3352,4656.62 1663.07497,4609.11 1900.65453,4529.9 2122.4122,4434.87 2344.134,4355.68 2581.7315,4260.65 2803.489,4149.79 3041.051,4023.04 3246.969,3912.21 3484.53,3769.63 3722.128,3627.11 31.68,15.84 31.679,15.84 31.68,15.84 31.68,0 47.519,0 31.68,-15.84 47.501,-15.84 47.52,-15.84 47.519,-15.84 63.36,-31.68 47.519,-47.52 63.342,-31.68 63.359,-47.52 63.359,-47.5 63.36,-63.36 63.359,-47.52 63.341,-63.36 63.36,-79.2 79.199,-63.34 63.359,-79.2 63.342,-79.2 79.199,-95.02 63.359,-79.2 79.199,-95.04 79.181,-95.04 63.36,-95.02 79.199,-110.88 79.199,-95.02 63.342,-110.88 79.199,-110.88 79.199,-110.86 63.359,-126.72 31.662,-47.52 47.519,-63.34 63.36,-126.72 79.199,-110.88 63.359,-110.86 0,-15.84 63.342,-110.87 79.199,-110.87 443.497,-681.07 490.999,-744.42 538.519,-760.28 570.198,-791.94 617.718,-807.77 665.219,-839.46 696.917,-855.3 760.258,-855.29 791.956,-871.14 823.617,-871.14 871.137,-871.14 934.479,-855.29 950.336,-839.46 1013.678,-823.62 1045.375,-791.94 1077.037,-776.11 1124.556,-728.58 1156.236,-681.08 1203.756,-617.72 1235.417,-586.03 1267.115,-506.84 1314.617,-443.48 1330.474,-364.3 1377.976,-300.94 1393.816,-205.9 1441.335,-110.88 1457.175,-15.84 1488.855,79.2 1520.516,190.06 1536.375,300.94 1568.035,427.66 -15.839,15.84 47.519,0 31.68,0 633.557,190.06 712.739,205.9 712.757,205.92 712.738,174.22 712.757,190.06 728.579,174.23 712.756,174.22 728.579,158.4 728.596,158.38 728.579,142.56 744.436,142.54 728.579,126.72 744.418,142.54 744.437,110.88 744.418,126.7 744.436,110.88 744.419,95.04 760.258,95.02 744.436,95.04 760.258,95.04 760.259,63.34 760.276,79.2 760.258,63.36 760.258,63.36 760.276,63.34 760.259,47.52 760.258,47.52 776.116,31.68 760.258,47.52 776.098,15.84 760.276,31.68 760.259,15.84 15.839,0 0,15.82 31.68,0 47.52,-15.82 31.679,-15.84 15.84,0 79.181,0 237.58,-47.52 237.597,-79.2 300.939,-174.22 443.48,-380.14 696.917,-807.78 839.457,-1282.95 522.679,-1077.04 253.419,-681.08 110.861,-443.48 63.359,-348.45 47.52,-300.94 15.84,-269.26 0,-253.42 158.38,269.26 190.078,285.1 205.9,300.94 205.9,285.09 221.757,285.1 221.74,285.1 221.74,285.1 237.58,285.1 221.739,269.26 237.598,285.1 237.579,285.1 237.58,285.1 237.58,269.26 221.739,285.1 221.758,285.09 221.74,269.26 205.9,285.1 190.06,285.1 190.078,285.1 190.06,285.1 158.38,269.26 0,15.84 15.84,31.68 31.68,15.84 31.679,31.68 15.84,15.84 47.52,0 31.679,0 15.84,0 31.68,0 712.739,-47.52 760.276,-47.52 760.258,-47.52 760.258,-47.5 744.436,-63.36 760.259,-47.52 744.418,-79.2 760.276,-63.34 744.419,-63.36 744.418,-79.2 744.44,-79.2 744.41,-95.02 744.44,-79.2 744.41,-95.04 728.58,-95.02 744.43,-95.04 728.58,-110.88 728.6,-110.86 728.58,-95.04 728.59,-126.72 712.74,-110.86 712.76,-110.88 728.58,-126.7 712.73,-126.72 696.92,-126.7 712.74,-126.71 696.92,-142.55 696.9,-126.71 696.91,-142.56 681.08,-142.54 696.9,-142.56 665.24,-142.54 15.84,0 1552.19,-285.1 1615.58,-158.38 1663.07,-63.36 1678.91,47.52 1710.6,142.54 1726.43,237.58 1758.12,332.62 1742.27,411.82 1758.1,490.99 1742.27,554.36 1742.28,633.56 1726.43,696.9 1710.59,760.28 1663.08,791.93 1647.25,855.3 1599.72,902.82 1552.21,934.48 1504.68,982.01 1441.33,982.02 1393.82,1029.51 1298.79,1029.52 1251.26,1061.22 1156.24,1045.35 1061.21,1061.2 982,1061.2 871.14,1045.37 776.1,1029.52 665.23,997.86 538.52,982 427.66,950.33 285.1,902.82 158.38,823.62 -15.84,0 15.84,47.52 15.84,47.51 15.84,47.51 15.84,31.68 15.84,31.68 31.68,15.84 31.68,15.84 31.68,15.84 31.66,0 47.52,0 31.68,-15.84 47.52,-15.84 47.52,-15.84 47.52,-15.84 47.52,-31.68 63.34,-31.68 47.52,-31.67 63.36,-47.51 15.84,0 47.52,-47.52 300.93,-237.58 348.44,-269.26 348.46,-269.26 332.62,-269.26 332.62,-269.28 332.62,-269.26 316.78,-269.26 316.76,-269.26 316.78,-269.26 300.94,-269.25 316.78,-269.26 300.93,-253.42 285.1,-269.26 300.94,-269.26 285.1,-269.26 300.94,-269.26 285.1,-253.42 285.1,-269.26 285.1,-269.26 269.26,-269.26 285.1,-285.1 285.09,-269.27 269.26,-269.26 285.1,-285.1 269.26,-269.26 269.26,-285.1 285.1,-285.1 269.26,-285.1 269.26,-285.1 285.1,-285.1 269.26,-300.94 285.1,-285.09 0,-15.84 79.2,-63.35 79.19,-95.04 63.36,-79.19 79.19,-95.03 79.19,-95.03 3262.81,-3658.77 3437.03,-4308.17 3246.95,-4514.06 3025.23,-4672.47 2755.95,-4799.16 2502.54,-4846.69 2201.59,-4878.36 1916.51,-4862.53 1647.24,-4878.36 1377.97,-4862.52 1140.4,-4878.37 886.98,-4894.18 649.39,-4878.37 427.64,-4894.2 174.24,-4894.21 -63.36,-4878.36 -285.1,-4862.52 -506.84,-4846.69 -744.43,-4815 -982,-4767.49 -1203.76,-4735.82 -1441.33,-4672.45 -1663.08,-4609.1 -1900.67,-4529.91 -2106.55,-4450.72 -2360,-4371.51 -2565.89,-4260.64 -2803.47,-4165.63 -3041.05,-4038.91 -3246.97,-3912.18 -3484.55,-3785.49 -3706.28,-3627.09 0,-15.84 -31.68,-15.84 -31.68,-15.84 -3832.99,-3405.35 -4007.23,-3215.29 -4133.94,-2977.71 -4244.81,-2740.11 -4339.83,-2502.53 -4419.04,-2264.95 -4514.07,-2043.22 -4593.26,-1805.63 -4640.79,-1568.04 -4704.12,-1346.29 -4751.67,-1092.9 -4799.16,-886.98 -4815.01,-633.53 -4830.83,-411.82 -4846.683,-174.22 z m -2581.732,4672.44 4815.005,174.24 4815.01,395.96 4799.15,649.4 4767.5,871.14 4735.81,1092.87 4688.3,1346.3 4640.77,1552.21 4561.58,1805.64 4498.24,2027.37 4419.03,2264.95 4324.01,2502.53 4228.96,2724.29 4118.11,2977.7 3991.39,3199.45 3832.99,3373.67 31.68,31.67 15.83,15.84 3690.45,3627.09 3468.71,3769.65 3246.97,3896.35 3025.21,4023.07 2787.63,4149.78 2565.89,4244.81 2328.32,4339.84 2106.57,4419.03 1884.81,4514.07 1647.24,4577.42 1425.49,4640.78 1203.76,4688.31 966.18,4719.96 744.41,4767.49 506.84,4783.34 285.1,4783.33 47.52,4799.16 -174.22,4783.33 -411.82,4751.66 -617.71,4719.97 -855.3,4672.46 -1077.04,4609.09 -1282.94,4529.92 -1488.85,4403.19 -1694.75,4292.32 -1869,4133.95 -2043.19,3991.39 -2233.29,3864.66 -2455.02,3801.33 -2692.61,3737.97 -2961.85,3706.29 -3167.77,3579.57 -79.2,79.2 -253.42,269.25 -253.42,269.26 -253.42,269.26 -237.57,253.42 -253.42,269.26 -253.44,253.42 -237.58,253.42 -253.42,253.42 -253.42,237.6 -237.58,253.42 -253.42,237.58 -253.42,253.42 -253.42,237.58 -253.44,237.57 -253.41,253.42 -269.26,237.6 -253.42,237.58 -269.26,237.58 -269.26,237.58 -269.26,253.42 -285.1,237.58 -269.26,253.44 -285.1,237.58 -300.94,253.42 -285.1,237.58 -316.78,253.41 -300.93,253.42 -316.78,253.42 -316.78,269.26 -316.76,253.42 -110.88,95.04 -95.04,-506.84 -316.78,-982.01 -443.48,-997.84 -570.2,-1013.7 -665.23,-1029.51 -791.94,-1061.2 -886.98,-1061.22 -997.84,-1061.19 -1077.05,-1061.2 -1172.06,-1077.04 -1235.43,-1045.37 -1330.46,-1045.36 -1393.83,-1029.52 -1457.16,-1013.69 -1504.7,-966.16 -1568.05,-950.34 -1599.72,-902.81 -1663.07,-855.3 -1678.92,-807.78 -1710.59,-760.26 -1742.27,-696.91 -1742.28,-649.4 -1773.95,-554.36 -1758.12,-506.84 -1773.95,-411.82 -1758.1,-332.6 -1758.11,-237.59 -1742.27,-142.55 -1710.6,-47.51 -1694.75,63.35 -1647.24,158.39 -1536.37,285.09 -47.52,0 -31.68,15.84 -15.84,0 -681.06,142.56 -681.08,142.54 -681.07,142.56 -681.06,126.7 -696.92,142.56 -696.9,126.7 -712.76,142.56 -696.89,126.7 -712.76,126.72 -712.74,110.88 -712.76,126.7 -712.74,110.88 -728.59,110.86 -712.74,110.88 -728.58,95.04 -728.6,110.86 -728.57,95.04 -744.44,95.04 -728.58,95.02 -744.44,79.2 -728.57,95.03 -744.41,79.19 -744.44,79.2 -744.41,63.35 -744.44,79.2 -760.26,63.35 -744.417,63.35 -744.437,47.52 -760.258,63.36 -760.258,47.52 -744.437,31.68 -633.557,31.66 -110.861,-190.06 -190.06,-285.1 -190.078,-300.93 -205.9,-285.1 -221.74,-285.1 -221.757,-285.1 -221.74,-285.1 -221.74,-285.1 -237.579,-285.1 -237.58,-285.1 -237.58,-269.26 -237.597,-285.1 -221.74,-285.09 -237.579,-269.26 -221.74,-285.1 -221.74,-285.1 -205.918,-285.1 -205.9,-269.26 -190.06,-285.1 -190.078,-285.1 -158.38,-285.1 -158.399,-285.1 -142.54,-285.1 -126.719,-285.1 -110.861,-285.09 -95.039,-285.1 -63.359,-285.1 -47.519,-269.26 -31.662,-269.26 -15.84,-253.42 15.84,-237.58 15.84,-110.88 0,-15.84 0,-79.2 110.861,-633.56 110.878,-601.85 110.861,-586.04 126.719,-570.2 126.701,-554.36 126.718,-522.7 142.559,-506.83 126.701,-475.16 142.558,-443.5 142.541,-411.8 142.558,-364.3 126.701,-316.78 110.879,-253.42 95.021,-205.9 79.199,-126.72 47.519,-95.02 31.68,-47.52 31.68,-47.52 63.359,-79.2 95.021,-110.86 126.719,-142.55 174.22,-174.23 221.74,-190.07 253.419,-205.9 285.099,-190.06 316.779,-205.9 332.619,-190.08 380.138,-158.38 380.138,-158.4 411.8,-142.54 427.657,-110.88 364.281,-79.2 31.679,0 47.52,-15.82 15.84,0 4593.267,-839.48 4403.17,-871.11 4213.15,-886.98 4038.89,-918.66 3848.84,-950.33 3674.61,-1013.68 3500.39,-1061.22 3326.15,-1140.39 3167.77,-1187.9 2993.53,-1282.96 2866.83,-1377.97 2692.61,-1473.02 2581.73,-1568.03 2439.17,-1710.6 2312.48,-1853.15 2233.27,-2027.37 2154.09,-2233.28 2090.72,-2502.53 2027.37,-2771.79 1900.67,-3025.23 1726.44,-3151.93 1520.51,-3215.29 1314.64,-3262.79 1156.23,-3357.83 1013.68,-3452.87 886.98,-3611.26 776.1,-3785.47 681.07,-3959.71 586.04,-4165.63 491,-4371.5 395.98,-4593.27 300.94,-4624.94 0,-79.2 15.84,-47.52 0,-15.84 0,-47.5 0,-15.84 0,-63.36 0,-47.52 0,-47.52 -15.84,-47.52 -15.84,-47.52 -15.84,-31.66 -15.84,-31.68 -15.84,-15.84 -31.68,-31.68 -31.68,-15.84 -31.68,0 -47.52,0 -31.68,0 -47.5,0 -47.52,15.84 -47.52,31.68 -47.52,15.84 -2486.69,1267.1 -2692.61,1235.43 -2914.35,1219.6 -3104.41,1203.73 -3246.95,1187.92 -3373.67,1187.92 -3500.39,1203.75 -3579.59,1235.44 -3627.09,1251.25 -3690.45,1298.8 -3706.28,1346.3 -3690.45,1393.81 -3674.61,1473.02 -3627.09,1552.19 -3547.91,1647.25 -3468.71,1726.44 -3357.83,1853.13 -3231.11,1964.02 -3088.58,2122.41 -2930.16,2280.79 -2787.654,2486.7 -2660.912,2787.63 -2550.052,3183.61 -2407.511,3674.6 -2043.213,3928.03 -1473.015,3833.01 -981.998,3753.81 -554.359,3801.32 -126.718,3928.03 285.099,4118.09 728.596,4324 1156.236,4403.21 15.84,95.02 15.84,47.52 47.502,221.74 47.519,205.92 15.84,205.9 15.84,190.06 0,174.24 -15.84,174.22 -15.84,142.55 -15.84,79.19 -158.38,-934.48 -348.458,-1647.26 -411.8,-1694.75 -491.017,-1758.11 -554.359,-1773.94 -617.717,-1837.31 -665.219,-1853.14 -744.437,-1884.83 -776.098,-1900.66 -839.457,-1916.49 -886.977,-1932.35 -934.496,-1932.34 -981.998,-1916.49 -1029.536,-1916.49 -1045.357,-1900.68 -1108.717,-1868.97 -1124.556,-1853.16 -1156.236,-1821.45 -1172.076,-1773.95 -1203.756,-1726.44 -1235.417,-1678.91 -1251.276,-1631.4 -1251.275,-1552.21 -1282.937,-1488.86 -1282.954,-1409.65 -1298.777,-1330.46 -1282.955,-1235.43 -1314.616,-1156.24 -1298.777,-1045.36 -1282.955,-950.33 -1267.097,-807.78 -31.68,-15.84 0,-15.84 -142.558,-79.2 -158.381,-79.18 -174.238,-79.2 -174.22,-79.2 -190.06,-63.34 -205.918,-79.2 -205.9,-63.36 -205.9,-63.36 -221.739,-47.52 -221.758,-63.34 -221.74,-47.52 -221.74,-31.68 -237.579,-47.52 -221.758,-31.68 -221.74,-31.68 -205.9,-15.84 -221.739,-15.84 -205.918,0 -205.9,0 -190.06,15.84 -190.06,15.84 -174.238,31.68 -174.221,47.52 -190.078,79.2 -221.739,110.86 -348.459,237.6 -760.258,823.62 -1219.595,2027.37 -411.8,1187.9 -47.52,427.65 31.68,237.58 47.519,110.88 0,31.68 0,15.82 15.84,31.68 0,15.84 205.9,506.86 205.9,522.68 190.078,506.84 205.9,506.84 190.06,506.84 190.06,506.85 174.238,506.84 174.221,506.84 174.238,491 158.38,491.02 142.559,506.83 142.54,491 142.559,475.16 110.861,491.02 110.878,475.16 95.021,491 79.2,475.17 79.199,459.32 47.519,475.16 47.52,459.34 15.84,443.48 15.822,443.5 -15.822,443.48 -31.68,427.65 -47.519,395.96 -47.52,395.98 -79.199,364.3 -79.181,332.6 -79.2,285.1 -79.199,221.76 -47.519,142.54 -15.84,15.84 -15.84,47.52 -31.68,47.52 0,15.84 -285.099,649.38 -158.38,459.33 -95.039,332.62 -47.502,253.42 -47.519,205.9 -15.84,205.9 0,174.24 -15.84,174.22 15.84,158.38 0,158.4 15.84,158.38 31.68,158.4 15.839,142.54 31.662,142.56 47.52,142.54 31.679,142.56 47.52,142.54 47.519,126.72 63.36,126.7 63.341,110.87 63.359,110.88 63.36,110.86 79.199,95.04 79.181,95.04 79.199,79.18 95.039,63.36 95.021,63.36 110.879,47.52 110.879,31.68 110.861,15.84 142.558,0 126.701,-31.68 15.84,0 1631.413,-285.1 1599.716,-95.04 1536.374,95.04 1488.837,285.1 1441.335,443.48 1393.816,601.88 1346.314,760.26 1298.777,902.81 1251.275,1045.38 1203.737,1156.22 1172.076,1298.79 1108.717,1377.98 1077.055,1504.69 1029.517,1583.88 997.856,1663.07 950.319,1742.28 918.656,1805.63 886.977,1853.14 839.457,1900.67 807.778,1948.17 760.258,1964.02 744.437,1995.69 712.738,1995.69 681.077,1995.7 649.398,1995.69 617.717,1979.85 601.86,1948.18 554.376,1900.67 554.359,1868.98 522.678,1821.47 490.999,1758.11 475.16,1678.92 47.519,190.06 63.359,205.9 63.36,205.92 47.519,221.74 63.342,237.57 63.359,237.58 63.359,237.58 15.84,47.52 -316.779,0 -760.258,-47.52 -760.276,-31.68 -760.258,-47.5 -760.258,-47.52 -760.277,-63.36 -760.258,-47.52 -760.258,-79.19 -760.276,-63.35 -744.419,-79.2 -760.258,-95.03 -744.436,-95.03 -744.419,-95.03 -744.436,-95.04 -744.418,-110.86 -744.419,-110.88 -744.436,-126.72 -728.579,-126.7 -728.596,-142.56 -744.418,-142.54 -728.597,-142.56 -712.739,-158.38 -728.578,-158.38 -728.597,-158.4 -712.738,-174.22 -712.757,-190.08 -712.739,-190.06 -696.917,-190.06 -696.916,-190.08 -681.059,-205.9 -31.68,-15.84 -1599.716,-427.64 -1568.054,-300.93 -1552.196,-190.08 -1520.534,-95.02 -1488.855,15.84 -1473.015,126.7 -1441.335,205.9 -1425.495,300.94 -1393.816,380.13 -1362.136,459.32 -1330.457,538.54 -1298.794,617.7 -1282.937,665.24 -1251.275,744.42 -1219.596,776.11 -1203.737,839.46 -1156.236,886.98 -1124.557,934.47 -1108.735,966.18 -1077.037,997.86 -1029.517,1029.51 -1013.696,1061.2 -966.158,1061.2 -934.496,1092.89 -902.817,1092.88 -871.137,1092.88 -823.617,1077.03 -776.099,1077.04 -728.596,1045.38 -459.319,665.21 -3231.129,-3151.93 -3468.691,-3769.62 -3246.968,-3880.53 -3009.389,-4007.23 -2803.472,-4133.93 -2565.8914,-4244.8 -2328.3121,-4324.01 -2122.3943,-4419.04 -1884.8326,-4498.23 -1647.2351,-4577.42 -1425.49542,-4624.95 -1203.75568,-4688.28 -966.1581,-4719.99 -744.4363,-4751.64 -506.8388,-4783.33 -285.0991,-4783.32 -47.5195,-4783.35 174.2382,-4783.32 395.9599,-4751.65 633.5575,-4719.98 855.2973,-4672.45 1061.19709,-4609.1 1282.95482,-4514.07 1504.69459,-4419.04 1678.9148,-4276.49 1868.9748,-4133.92 2043.2131,-3991.39 2233.2733,-3880.53 2455.031,-3785.47 2692.592,-3737.96 2961.87,-3722.13 3041.05,-3437.03 63.36,-63.36 15.84,-15.84 47.519,-47.52 79.181,-79.2 0,-15.82 3468.709,-3532.07 3658.768,-3373.67 3801.327,-3167.77 3959.708,-2961.87 4086.426,-2755.95 4197.287,-2534.23 4324.005,-2312.45 4403.205,-2106.58 4482.386,-1868.99 4561.585,-1647.23 4640.785,-1425.5 4688.286,-1187.91 4719.983,-966.16 4783.325,-744.44 4783.325,-506.84 4815.005,-285.1 4830.844,-47.52 z m 69564.165,64099.79 -285.1,4197.29 -411.8,4545.75 -475.18,4292.32 -554.36,4054.75 -665.22,3833.01 -744.43,3595.4 -823.62,3357.83 -918.66,3136.09 -981.99,2866.83 -1045.38,2581.74 -1077.04,2296.63 -1108.71,2043.21 -1172.08,1853.14 -1314.62,1789.79 -1504.69,1789.79 -1710.59,1789.8 -1900.66,1726.43 -2106.57,1678.92 -2264.95,1583.87 -2455.02,1504.7 -2613.41,1425.49 -2771.79,1330.46 -2961.87,1251.27 -3120.25,1187.92 -3294.49,1124.56 -3468.69,1045.35 -3642.95,997.86 -3832.98,966.16 -4023.07,918.65 -4197.29,886.98 -4403.19,855.3 -4593.265,839.46 -47.501,15.84 -443.498,79.19 -475.159,142.55 -475.177,142.55 -459.319,190.06 -459.319,205.9 -443.498,253.42 -443.479,269.26 -443.498,316.78 -443.479,364.3 -475.159,395.98 -459.338,475.16 -506.838,538.51 -490.999,601.88 -522.697,696.9 -506.839,744.44 -490.999,776.1 -459.319,776.09 -395.978,776.12 -364.298,728.58 -316.779,712.76 -285.099,696.89 -253.42,665.24 -221.739,665.22 -205.9,649.4 -190.078,649.4 -190.06,633.55 -158.381,649.38 -142.558,649.4 -142.541,665.24 -126.718,665.22 -126.701,665.23 -47.52,316.78 -15.839,-47.52 -63.36,-174.22 15.84,-15.84 0,-15.84 -15.84,-31.68 -15.84,-31.68 -459.319,-1599.71 -491.017,-1758.12 -522.679,-1821.47 -411.799,-1409.66 31.679,-15.84 47.502,-31.68 47.519,-15.83 63.36,-31.67 47.519,-47.52 63.36,-31.68 63.341,-47.52 63.359,-63.35 63.36,-47.52 63.359,-63.35 63.341,-63.35 63.36,-79.2 79.199,-79.2 63.359,-79.18 79.181,-79.2 63.36,-95.04 79.199,-79.18 79.199,-110.88 79.181,-95.04 79.2,-110.86 63.359,-110.88 79.199,-95.04 79.181,-126.7 63.36,-110.88 79.199,-110.86 63.359,-110.88 79.181,-110.88 63.36,-110.86 63.359,-110.88 63.359,-110.86 63.342,-126.72 47.519,-110.88 63.36,-110.86 47.519,-110.88 63.359,-95.02 47.52,-110.88 47.501,-110.88 31.68,-110.86 47.52,-95.04 31.679,-95.03 31.68,-95.03 15.84,-47.51 15.84,-47.52 15.84,-31.68 15.839,-63.36 15.84,-15.84 15.84,-63.34 0,-15.84 47.502,-63.36 31.679,-95.04 63.36,-110.86 63.359,-126.72 95.021,-158.38 95.039,-190.08 110.879,-221.74 142.54,-221.74 142.559,-269.26 158.38,-300.94 174.238,-316.78 174.221,-348.46 190.06,-364.29 174.238,-380.12 190.06,-411.82 190.06,-411.8 158.398,-427.66 158.381,-411.8 126.719,-411.82 110.86,-395.97 95.039,-364.28 63.36,-364.3 47.519,-332.62 15.84,-332.62 15.84,-300.94 -15.84,-300.94 -31.68,-285.1 -63.359,-285.1 -63.359,-269.26 -1172.076,-4482.38 -712.739,-4228.97 -285.099,-3959.71 126.701,-3706.28 491.017,-3389.51 791.938,-3009.39 981.997,-2550.05 1077.055,-2074.9 1282.937,-1964.01 1710.595,-2122.39 2106.572,-2201.6 2455.013,-2185.77 2708.448,-2106.55 2946,-2011.54 3120.25,-1900.67 3278.65,-1821.46 3405.35,-1694.75 3516.21,-1631.41 3595.43,-1520.52 3642.92,-1473.01 3674.61,-1393.82 3690.45,-1330.47 3674.61,-1298.78 3627.11,-1251.28 3579.57,-1235.41 3500.38,-1203.76 3389.51,-1203.75 3262.79,-1187.92 3120.25,-1219.58 2946.03,-1219.59 2771.79,-1267.12 2074.9,-1061.2 z m -110729.293,24914.5 95.022,47.5 142.558,79.2 126.701,63.36 0,15.84 31.679,15.84 31.68,0 1203.756,791.94 1282.937,934.5 1282.954,1029.51 1298.777,1140.4 1282.955,1235.44 1282.937,1330.45 1282.955,1409.66 1267.097,1473.01 1251.275,1552.22 1235.435,1615.55 1219.578,1663.08 1203.755,1726.43 1172.076,1773.96 1156.236,1805.63 1124.557,1837.29 1092.877,1869 1045.375,1900.65 1013.678,1900.66 982.016,1916.51 918.638,1916.49 886.977,1916.5 839.457,1900.65 776.116,1900.67 728.579,1868.98 681.077,1837.31 601.878,1805.62 554.358,1773.95 475.159,1726.44 411.818,1663.07 332.601,1615.57 269.259,1536.36 -205.9,-665.22 -586.038,-1964.03 -633.557,-1979.85 -649.38,-1995.7 -681.077,-2011.53 -712.739,-1995.7 -744.436,-2011.51 -776.098,-1979.87 -807.778,-1948.18 -855.297,-1916.49 -871.137,-1868.98 -934.496,-1821.47 -950.337,-1758.11 -1013.677,-1678.92 -1029.518,-1599.71 -1092.894,-1504.7 -1124.557,-1409.65 -1187.916,-1314.64 -1219.577,-1172.06 -1282.955,-1061.21 -1314.617,-918.66 -1377.976,-776.1 -1425.495,-633.55 -1488.855,-443.48 -1536.374,-285.1 -1599.715,-110.88 -1663.075,95.04 -1710.595,300.94 -47.519,0 -31.68,15.84 -15.84,0 -63.359,-15.84 -63.342,-15.84 -63.359,-31.68 -63.359,-31.68 -63.36,-47.52 -63.359,-47.5 -47.502,-63.36 -63.359,-79.2 -47.519,-79.2 -47.52,-95.02 -47.519,-95.04 -47.52,-95.04 -47.501,-95.02 -31.68,-110.88 -31.68,-110.88 -31.679,-110.86 -15.84,-110.88 -15.84,-110.86 -15.84,-110.88 -15.84,-110.88 -15.84,-110.86 0,-95.04 0,-47.52 47.52,-95.02 300.939,-760.27 237.579,-696.9 190.078,-633.56 158.381,-617.72 110.879,-570.2 79.181,-554.35 47.519,-538.52 31.68,-522.68 15.84,-522.68 0,-506.86 -31.68,-506.84 -47.519,-506.83 -47.52,-506.84 -79.181,-506.84 -95.039,-491.02 -95.039,-506.84 -110.861,-506.84 -126.719,-506.83 -142.54,-491.02 -142.559,-506.84 -158.38,-506.84 -158.398,-506.84 -95.022,-285.1 z"
         inkscape:connector-curvature="0" /></g><g
       id="g6868"><g
         id="g6872"><g
           id="g6874" /></g></g></g></svg>